<?xml version="1.0" standalone="no"?>
<!DOCTYPE svg PUBLIC "-//W3C//DTD SVG 20010904//EN"
 "http://www.w3.org/TR/2001/REC-SVG-20010904/DTD/svg10.dtd">
<svg version="1.0" xmlns="http://www.w3.org/2000/svg"
 width="494.000000pt" height="494.000000pt" viewBox="0 0 494.000000 494.000000"
 preserveAspectRatio="xMidYMid meet">
<metadata>
Created by potrace 1.11, written by Peter Selinger 2001-2013
</metadata>
<g transform="translate(0.000000,494.000000) scale(0.100000,-0.100000)"
fill="#000000" stroke="none">
<path d="M4133 4905 c-6 -17 -28 -84 -48 -150 -20 -66 -42 -136 -48 -155 -6
-19 -12 -39 -14 -45 -1 -5 -16 -50 -33 -100 -35 -100 -105 -378 -112 -441 -3
-23 -8 -45 -11 -51 -3 -5 -8 -31 -12 -59 -6 -50 -12 -89 -20 -134 -3 -14 -7
-47 -11 -75 -3 -27 -7 -51 -9 -53 -1 -2 -15 -5 -31 -8 -16 -2 -50 -12 -76 -20
l-47 -15 -64 63 c-35 35 -79 74 -97 88 -17 14 -37 30 -44 35 -39 33 -212 126
-294 157 -61 24 -188 61 -252 73 -66 12 -121 20 -210 30 -99 10 -427 5 -517
-9 -21 -3 -58 -8 -83 -11 -71 -9 -269 -64 -328 -91 -29 -13 -56 -24 -61 -24
-9 0 -210 -119 -231 -138 -8 -7 -26 -22 -40 -33 -14 -11 -53 -47 -87 -81 l-62
-60 -41 16 c-22 9 -54 16 -70 16 -33 0 -40 8 -47 53 -2 18 -6 43 -9 57 -2 14
-8 54 -14 90 -7 51 -45 248 -65 340 -19 87 -92 333 -112 380 -3 8 -7 17 -8 20
-2 8 -10 35 -51 165 -21 66 -38 122 -39 125 -6 34 -17 60 -25 60 -6 0 -10 -4
-10 -9 0 -10 -85 -198 -100 -221 -6 -8 -13 -22 -16 -30 -3 -8 -15 -35 -26 -60
-17 -36 -75 -198 -79 -220 -1 -3 -3 -9 -4 -15 -2 -5 -5 -19 -8 -30 -3 -11 -23
-85 -45 -165 -23 -80 -43 -156 -46 -170 -3 -14 -16 -79 -30 -145 -14 -66 -28
-142 -31 -170 -2 -27 -7 -61 -10 -75 -8 -37 -8 -179 -1 -230 14 -94 17 -106
33 -155 63 -198 203 -342 414 -426 30 -12 59 -22 64 -23 56 -14 66 -19 60 -35
-4 -9 -8 -32 -11 -51 -2 -19 -7 -43 -10 -53 -3 -9 -7 -34 -9 -55 -2 -20 -6
-55 -9 -77 -6 -53 -16 -166 -21 -257 -6 -93 -6 -511 0 -646 2 -56 0 -102 -4
-102 -5 0 -53 -21 -108 -46 -54 -25 -132 -62 -173 -81 -41 -19 -77 -36 -79
-38 -5 -5 67 -83 184 -200 92 -92 254 -225 274 -225 6 0 11 -4 11 -8 0 -5 16
-17 35 -28 19 -10 35 -22 35 -26 0 -5 6 -8 13 -8 7 0 28 -11 47 -23 94 -63
292 -155 425 -197 39 -12 77 -25 85 -28 8 -3 20 -6 25 -6 110 -16 139 -30 244
-115 58 -47 111 -90 117 -96 6 -5 28 -23 49 -40 21 -16 43 -35 49 -40 6 -6 56
-46 111 -90 55 -44 128 -107 162 -141 l62 -61 58 59 c32 33 103 96 158 140 55
45 105 86 111 92 7 6 27 22 45 36 18 14 76 60 128 103 53 43 103 83 111 90 9
7 22 17 31 24 8 7 30 15 49 18 133 23 284 74 460 157 114 53 318 178 401 245
112 90 240 212 309 293 12 14 30 36 41 48 11 13 18 27 14 30 -3 4 -86 43 -183
88 l-177 80 4 90 c11 234 3 705 -14 844 -3 25 -8 68 -11 95 -3 28 -12 87 -20
132 -16 85 -14 103 12 103 48 0 192 66 274 126 49 35 150 137 150 152 0 4 8
17 18 28 23 24 69 133 83 193 37 158 27 374 -26 611 -3 14 -8 36 -11 50 -3 14
-7 33 -10 42 -3 9 -7 26 -9 38 -2 11 -14 55 -25 98 -12 42 -23 84 -25 93 -6
29 -46 162 -77 259 -29 88 -51 139 -154 355 -21 44 -41 89 -44 100 -5 17 -7
16 -17 -10z"/>
</g>
</svg>
